<svg width="20.000000" height="20.000000" viewBox="0 0 20 20" fill="none" xmlns="http://www.w3.org/2000/svg" xmlns:xlink="http://www.w3.org/1999/xlink">
	<desc>
			Created with Pixso.
	</desc>
	<defs>
		<clipPath id="clip2_1794">
			<rect id="openmoji:instagram" rx="0.000000" width="19.000000" height="19.000000" transform="translate(0.500000 0.500000)" fill="white" fill-opacity="0"/>
		</clipPath>
	</defs>
	<rect id="openmoji:instagram" rx="0.000000" width="19.000000" height="19.000000" transform="translate(0.500000 0.500000)" fill="#FFFFFF" fill-opacity="0"/>
	<g clip-path="url(#clip2_1794)">
		<path id="Vector" d="M6.35 4.17Q6.67 4.1 7 4.1L12.99 4.1Q13.32 4.1 13.64 4.17Q13.89 4.23 14.12 4.33Q14.36 4.43 14.58 4.57Q14.83 4.73 15.04 4.95Q15.26 5.16 15.42 5.41Q15.56 5.63 15.66 5.87Q15.76 6.1 15.82 6.35Q15.89 6.67 15.89 7L15.89 12.99Q15.89 13.32 15.82 13.64Q15.76 13.89 15.66 14.12Q15.56 14.36 15.42 14.58Q15.26 14.83 15.04 15.04Q14.83 15.26 14.58 15.42Q14.36 15.56 14.12 15.66Q13.89 15.76 13.64 15.82Q13.32 15.89 12.99 15.89L7 15.89Q6.67 15.89 6.35 15.82Q6.1 15.76 5.87 15.66Q5.63 15.56 5.41 15.42Q5.16 15.26 4.95 15.04Q4.73 14.83 4.57 14.58Q4.43 14.36 4.33 14.12Q4.23 13.89 4.17 13.64Q4.1 13.32 4.1 12.99L4.1 7Q4.1 6.67 4.17 6.35Q4.23 6.1 4.33 5.87Q4.43 5.63 4.57 5.41Q4.73 5.16 4.95 4.95Q5.16 4.73 5.41 4.57Q5.63 4.43 5.87 4.33Q6.1 4.23 6.35 4.17ZM12.99 3.5C14.92 3.5 16.49 5.07 16.49 7L16.49 12.99C16.49 14.92 14.92 16.49 12.99 16.49L7 16.49C5.07 16.49 3.5 14.92 3.5 12.99L3.5 7C3.5 5.07 5.07 3.5 7 3.5L12.99 3.5Z" fill="#020105" fill-opacity="1.000000" fill-rule="evenodd"/>
		<path id="Vector" d="M7 3.5C5.07 3.5 3.5 5.07 3.5 7L3.5 12.99C3.5 14.92 5.07 16.49 7 16.49L12.99 16.49C14.92 16.49 16.49 14.92 16.49 12.99L16.49 7C16.49 5.07 14.92 3.5 12.99 3.5L12.99 3.5L7 3.5Z" stroke="#020105" stroke-opacity="1.000000" stroke-width="0.200000"/>
		<path id="Vector" d="M10 13.13C8.26 13.13 6.86 11.73 6.86 10C6.86 8.26 8.26 6.86 10 6.86C11.73 6.86 13.13 8.26 13.13 10C13.13 11.73 11.73 13.13 10 13.13Z" stroke="#020105" stroke-opacity="1.000000" stroke-width="0.600000"/>
		<path id="Vector" d="M14.48 6.19C14.48 6.56 14.17 6.86 13.8 6.86C13.43 6.86 13.13 6.56 13.13 6.19C13.13 5.82 13.43 5.52 13.8 5.52C14.17 5.52 14.48 5.82 14.48 6.19Z" fill="#020105" fill-opacity="1.000000" fill-rule="evenodd"/>
	</g>
</svg>
