<svg width="20.000000" height="20.000000" viewBox="0 0 20 20" fill="none" xmlns="http://www.w3.org/2000/svg" xmlns:xlink="http://www.w3.org/1999/xlink">
	<desc>
			Created with Pixso.
	</desc>
	<defs>
		<clipPath id="clip2_1798">
			<rect id="telegram" rx="0.000000" width="19.000000" height="19.000000" transform="translate(0.500000 0.500000) rotate(-0.000000)" fill="white" fill-opacity="0"/>
		</clipPath>
	</defs>
	<rect id="telegram" rx="0.000000" width="19.000000" height="19.000000" transform="translate(0.500000 0.500000) rotate(-0.000000)" fill="#FFFFFF" fill-opacity="0"/>
	<g clip-path="url(#clip2_1798)">
		<path id="Vector" d="M17.65 4.72L15.32 15.68C15.16 16.46 14.69 16.64 14.04 16.28L8.49 12.19C8.47 12.17 8.46 12.15 8.44 12.13C8.43 12.1 8.43 12.08 8.43 12.05C8.43 12.02 8.43 12 8.44 11.98C8.46 11.95 8.47 11.93 8.49 11.92L14.9 6.13C15.19 5.87 14.84 5.75 14.45 5.98L6.42 11.05C6.39 11.07 6.36 11.08 6.33 11.08C6.31 11.09 6.28 11.08 6.25 11.07L2.84 9.99C2.08 9.77 2.08 9.25 3.01 8.88L16.66 3.62C16.77 3.56 16.89 3.53 17.01 3.53C17.48 3.53 17.84 3.94 17.65 4.72Z" stroke="#020105" stroke-opacity="1.000000" stroke-width="0.600000" stroke-linejoin="round"/>
	</g>
</svg>
