<svg width="16.876221" height="14.589478" viewBox="0 0 16.8762 14.5895" fill="none" xmlns="http://www.w3.org/2000/svg" xmlns:xlink="http://www.w3.org/1999/xlink">
	<desc>
			Created with Pixso.
	</desc>
	<defs/>
	<path id="Vector" d="M16.38 0.97L13.9 0.97L13.9 0.48C13.9 0.21 13.69 0 13.41 0C13.13 0 12.92 0.21 12.92 0.48L12.92 0.97L10.41 0.97L10.41 0.48C10.41 0.21 10.19 0 9.92 0C9.64 0 9.42 0.21 9.42 0.48L9.42 0.97L6.95 0.97L6.95 0.48C6.95 0.21 6.73 0 6.45 0C6.18 0 5.96 0.21 5.96 0.48L5.96 0.97L3.49 0.97C3.21 0.97 2.99 1.18 2.99 1.45L2.99 2.91L16.87 2.91L16.87 1.45C16.87 1.18 16.65 0.97 16.38 0.97ZM0.49 11.67L13.41 11.67C13.53 11.67 13.64 11.63 13.73 11.55C13.85 11.45 16.68 9.06 16.85 3.89L2.98 3.89C2.81 8.58 0.2 10.79 0.17 10.81C0.01 10.94 -0.05 11.16 0.03 11.35C0.1 11.54 0.28 11.67 0.49 11.67ZM13.41 12.64C13.76 12.64 14.09 12.52 14.36 12.3C14.59 12.11 15.92 10.95 16.87 8.65L16.87 14.1C16.87 14.37 16.65 14.58 16.38 14.58L3.49 14.58C3.21 14.58 2.99 14.37 2.99 14.1L2.99 12.64L13.41 12.64Z" fill="#888888" fill-opacity="1.000000" fill-rule="evenodd"/>
</svg>
