<svg width="24.729736" height="21.713379" viewBox="0 0 24.7297 21.7134" fill="none" xmlns="http://www.w3.org/2000/svg" xmlns:xlink="http://www.w3.org/1999/xlink">
	<desc>
			Created with Pixso.
	</desc>
	<defs/>
	<path id="Exchange" d="M24.42 16.13C24.42 16.55 24.09 16.88 23.67 16.88L2.87 16.88L6.11 20.12C6.4 20.42 6.4 20.89 6.11 21.19C5.96 21.33 5.77 21.41 5.57 21.41C5.38 21.41 5.19 21.33 5.04 21.19L0.52 16.66C0.22 16.37 0.22 15.89 0.52 15.6L5.04 11.07C5.34 10.78 5.81 10.78 6.11 11.07C6.4 11.37 6.4 11.84 6.11 12.14L2.87 15.38L23.67 15.38C24.09 15.38 24.42 15.71 24.42 16.13ZM24.2 5.04L19.68 0.52C19.38 0.22 18.91 0.22 18.61 0.52C18.32 0.81 18.32 1.29 18.61 1.58L21.85 4.82L1.05 4.82C0.63 4.82 0.3 5.16 0.3 5.57C0.3 5.99 0.63 6.33 1.05 6.33L21.85 6.33L18.61 9.56C18.32 9.86 18.32 10.34 18.61 10.63C18.76 10.78 18.95 10.85 19.15 10.85C19.34 10.85 19.53 10.78 19.68 10.63L24.2 6.11C24.5 5.81 24.5 5.33 24.2 5.04Z" fill="#000000" fill-opacity="1.000000" fill-rule="nonzero"/>
	<path id="Exchange" d="M21.55 6.63L18.61 9.56C18.32 9.86 18.32 10.34 18.61 10.63C18.76 10.78 18.95 10.85 19.15 10.85C19.34 10.85 19.53 10.78 19.68 10.63L24.2 6.11C24.5 5.81 24.5 5.33 24.2 5.04L19.68 0.52C19.38 0.22 18.91 0.22 18.61 0.52C18.32 0.81 18.32 1.29 18.61 1.58L21.55 4.52L21.85 4.82L1.05 4.82C0.63 4.82 0.3 5.16 0.3 5.57C0.3 5.99 0.63 6.33 1.05 6.33L21.85 6.33L21.55 6.63ZM3.59 17.18L23.67 17.18Q23.79 17.18 23.9 17.16Q23.99 17.14 24.08 17.1Q24.17 17.06 24.25 17.01Q24.34 16.95 24.42 16.88Q24.49 16.8 24.55 16.71Q24.6 16.63 24.64 16.54Q24.68 16.45 24.7 16.36Q24.72 16.25 24.72 16.13Q24.72 16.01 24.7 15.9Q24.68 15.81 24.64 15.72Q24.6 15.63 24.55 15.55Q24.49 15.46 24.42 15.38Q24.34 15.31 24.25 15.25Q24.17 15.2 24.08 15.16Q23.99 15.12 23.9 15.1Q23.79 15.08 23.67 15.08L3.59 15.08L6.32 12.35Q6.4 12.27 6.46 12.17Q6.51 12.09 6.55 12Q6.59 11.91 6.61 11.82Q6.63 11.71 6.63 11.61Q6.63 11.5 6.61 11.4Q6.59 11.3 6.55 11.21Q6.51 11.12 6.46 11.04Q6.4 10.94 6.32 10.86Q6.24 10.78 6.14 10.72Q6.06 10.67 5.97 10.63Q5.88 10.59 5.78 10.57Q5.68 10.55 5.57 10.55Q5.47 10.55 5.36 10.57Q5.27 10.59 5.18 10.63Q5.09 10.67 5.01 10.72Q4.91 10.78 4.83 10.86L0.3 15.38Q0.22 15.47 0.16 15.56Q0.11 15.64 0.07 15.73Q0.04 15.82 0.02 15.92Q0 16.02 0 16.13Q0 16.24 0.02 16.34Q0.04 16.44 0.07 16.53Q0.11 16.62 0.16 16.7Q0.22 16.79 0.3 16.88L4.83 21.4Q4.91 21.48 5 21.54Q5.09 21.59 5.18 21.63Q5.27 21.67 5.36 21.69Q5.47 21.71 5.57 21.71Q5.68 21.71 5.78 21.69Q5.88 21.67 5.97 21.63Q6.06 21.59 6.14 21.54Q6.24 21.48 6.32 21.4Q6.4 21.32 6.46 21.22Q6.51 21.14 6.55 21.05Q6.59 20.96 6.61 20.87Q6.63 20.76 6.63 20.65Q6.63 20.55 6.61 20.44Q6.59 20.35 6.55 20.26Q6.51 20.17 6.46 20.09Q6.4 19.99 6.32 19.91L3.59 17.18ZM3.17 17.18L2.87 16.88L23.67 16.88C24.09 16.88 24.42 16.55 24.42 16.13C24.42 15.71 24.09 15.38 23.67 15.38L2.87 15.38L3.17 15.08L6.11 12.14C6.4 11.84 6.4 11.37 6.11 11.07C5.81 10.78 5.34 10.78 5.04 11.07L0.52 15.6C0.22 15.89 0.22 16.37 0.52 16.66L5.04 21.19C5.19 21.33 5.38 21.41 5.57 21.41C5.77 21.41 5.96 21.33 6.11 21.19C6.4 20.89 6.4 20.42 6.11 20.12L3.17 17.18ZM24.42 4.83L19.89 0.3Q19.81 0.22 19.71 0.16Q19.63 0.11 19.54 0.07Q19.45 0.04 19.36 0.02Q19.25 0 19.15 0Q19.04 0 18.94 0.02Q18.84 0.04 18.75 0.07Q18.66 0.11 18.58 0.16Q18.48 0.22 18.4 0.3Q18.32 0.39 18.26 0.48Q18.21 0.56 18.17 0.65Q18.13 0.74 18.11 0.84Q18.09 0.94 18.09 1.05Q18.09 1.16 18.11 1.26Q18.13 1.35 18.17 1.45Q18.21 1.54 18.26 1.62Q18.32 1.71 18.4 1.79L21.13 4.52L1.05 4.52Q0.93 4.52 0.82 4.54Q0.73 4.56 0.64 4.6Q0.55 4.64 0.47 4.69Q0.38 4.75 0.3 4.83Q0.23 4.9 0.17 4.99Q0.12 5.07 0.08 5.16Q0.04 5.25 0.02 5.35Q0 5.46 0 5.57Q0 5.69 0.02 5.8Q0.04 5.89 0.08 5.98Q0.12 6.07 0.17 6.16Q0.23 6.24 0.3 6.32Q0.38 6.39 0.47 6.45Q0.55 6.51 0.64 6.54Q0.73 6.58 0.82 6.6Q0.93 6.63 1.05 6.63L21.13 6.63L18.4 9.35Q18.32 9.43 18.26 9.53Q18.21 9.61 18.17 9.7Q18.13 9.79 18.11 9.89Q18.09 9.99 18.09 10.1Q18.09 10.21 18.11 10.31Q18.13 10.4 18.17 10.49Q18.21 10.58 18.26 10.67Q18.32 10.76 18.4 10.84Q18.48 10.92 18.58 10.98Q18.66 11.04 18.75 11.07Q18.84 11.11 18.94 11.13Q19.04 11.15 19.15 11.15Q19.25 11.15 19.36 11.13Q19.45 11.11 19.54 11.07Q19.63 11.04 19.72 10.99Q19.81 10.92 19.89 10.84L24.42 6.32Q24.5 6.24 24.56 6.14Q24.61 6.06 24.65 5.97Q24.68 5.88 24.7 5.78Q24.72 5.68 24.72 5.57Q24.72 5.47 24.7 5.36Q24.68 5.27 24.65 5.18Q24.61 5.09 24.56 5.01Q24.5 4.91 24.42 4.83Z" fill="#000000" fill-opacity="1.000000" fill-rule="evenodd"/>
</svg>
