<svg width="22.399902"  height="19.399902" viewBox="0 0 22.3999 19.3999" fill="red" xmlns="http://www.w3.org/2000/svg" xmlns:xlink="http://www.w3.org/1999/xlink">
	<desc>
			Created with Pixso.
	</desc>
	<defs/>
	<path   id="Vector" d="M11.2 19.2C10.88 19.2 10.58 19.08 10.34 18.88C9.46 18.13 8.6 17.42 7.84 16.8L7.84 16.79C5.62 14.96 3.71 13.38 2.38 11.82C0.89 10.07 0.19 8.42 0.19 6.61C0.19 4.86 0.81 3.24 1.94 2.05C3.08 0.86 4.64 0.19 6.34 0.19C7.61 0.19 8.77 0.58 9.8 1.35C10.31 1.74 10.78 2.22 11.2 2.77C11.61 2.22 12.08 1.74 12.59 1.35C13.62 0.58 14.78 0.19 16.05 0.19C17.75 0.19 19.31 0.86 20.45 2.05C21.58 3.24 22.2 4.86 22.2 6.61C22.2 8.42 21.5 10.07 20.01 11.82C18.68 13.38 16.77 14.96 14.55 16.79C13.79 17.42 12.94 18.13 12.05 18.89C11.81 19.08 11.51 19.2 11.2 19.2ZM6.34 1.45C5.01 1.45 3.78 1.96 2.89 2.9C1.98 3.86 1.48 5.17 1.48 6.61C1.48 8.13 2.07 9.49 3.37 11.02C4.63 12.49 6.5 14.05 8.67 15.84L8.68 15.84C9.44 16.47 10.3 17.18 11.19 17.94C12.09 17.18 12.96 16.47 13.72 15.84C15.89 14.04 17.76 12.49 19.02 11.02C20.32 9.49 20.91 8.13 20.91 6.61C20.91 5.17 20.41 3.86 19.5 2.9C18.61 1.96 17.38 1.45 16.05 1.45C15.07 1.45 14.17 1.75 13.38 2.34C12.67 2.87 12.18 3.54 11.89 4.01C11.75 4.25 11.48 4.4 11.2 4.4C10.91 4.4 10.64 4.25 10.5 4.01C10.21 3.54 9.72 2.87 9.01 2.34C8.22 1.75 7.32 1.45 6.34 1.45Z" fill="#000000" fill-opacity="1.000000" fill-rule="nonzero"/>
	<path  id="Vector" d="M10.22 19.04L10.22 19.04Q10.3 19.11 10.4 19.17Q10.53 19.25 10.67 19.3Q10.79 19.35 10.91 19.37Q11.05 19.39 11.2 19.39Q11.34 19.39 11.48 19.37Q11.6 19.35 11.72 19.3Q11.86 19.25 11.99 19.17Q12.09 19.11 12.17 19.04Q13.08 18.27 14.68 16.95L14.68 16.95Q15.77 16.04 16.28 15.61Q17.13 14.9 17.75 14.35Q19.26 13 20.17 11.95Q21.3 10.61 21.85 9.32Q22.18 8.53 22.31 7.7Q22.39 7.16 22.39 6.61Q22.39 5.51 22.09 4.5Q22.02 4.27 21.93 4.05Q21.62 3.23 21.12 2.54Q20.88 2.21 20.59 1.92Q20.12 1.42 19.57 1.05Q19.09 0.72 18.54 0.49Q18.18 0.34 17.82 0.24Q16.97 0 16.05 0Q15.1 0 14.23 0.27Q13.3 0.57 12.47 1.19Q11.77 1.72 11.2 2.44Q10.62 1.72 9.92 1.19Q9.09 0.57 8.16 0.27Q7.29 0 6.34 0Q5.42 0 4.57 0.24Q4.21 0.34 3.85 0.49Q3.3 0.72 2.82 1.05Q2.27 1.42 1.8 1.92Q1.51 2.22 1.27 2.55Q0.77 3.23 0.46 4.05Q0.37 4.27 0.3 4.5Q0 5.51 0 6.61Q0 7.16 0.08 7.7Q0.21 8.52 0.54 9.32Q1.09 10.61 2.22 11.95Q3.13 13 4.64 14.35Q5.26 14.9 6.11 15.61Q6.62 16.05 7.71 16.95L7.72 16.95Q9.32 18.28 10.22 19.04ZM11.32 2.6C11.7 2.12 12.13 1.7 12.59 1.35C13.62 0.58 14.78 0.19 16.05 0.19C17.75 0.19 19.31 0.86 20.45 2.05C21.58 3.24 22.2 4.86 22.2 6.61C22.2 8.42 21.5 10.07 20.01 11.82C18.68 13.38 16.77 14.96 14.55 16.79C13.79 17.42 12.94 18.13 12.05 18.89C11.81 19.08 11.51 19.2 11.2 19.2C10.88 19.2 10.58 19.08 10.34 18.88C9.46 18.13 8.6 17.42 7.84 16.8L7.84 16.79C5.62 14.96 3.71 13.38 2.38 11.82C0.89 10.07 0.19 8.42 0.19 6.61C0.19 4.86 0.81 3.24 1.94 2.05C3.08 0.86 4.64 0.19 6.34 0.19C7.61 0.19 8.77 0.58 9.8 1.35C10.26 1.7 10.69 2.12 11.07 2.6C11.11 2.66 11.15 2.71 11.2 2.77C11.24 2.71 11.28 2.66 11.32 2.6ZM6.34 1.45C5.01 1.45 3.78 1.96 2.89 2.9C1.98 3.86 1.48 5.17 1.48 6.61C1.48 8.13 2.07 9.49 3.37 11.02C4.63 12.49 6.5 14.05 8.67 15.84L8.68 15.84C9.44 16.47 10.3 17.18 11.19 17.94C12.09 17.18 12.96 16.47 13.72 15.84C15.89 14.04 17.76 12.49 19.02 11.02C20.32 9.49 20.91 8.13 20.91 6.61C20.91 5.17 20.41 3.86 19.5 2.9C18.61 1.96 17.38 1.45 16.05 1.45C15.07 1.45 14.17 1.75 13.38 2.34C12.67 2.87 12.18 3.54 11.89 4.01C11.75 4.25 11.48 4.4 11.2 4.4C10.91 4.4 10.64 4.25 10.5 4.01C10.21 3.54 9.72 2.87 9.01 2.34C8.22 1.75 7.32 1.45 6.34 1.45ZM11.19 17.68Q10.31 16.93 8.8 15.69L8.8 15.69L8.8 15.69Q7.74 14.8 7.23 14.38Q6.41 13.69 5.81 13.16Q4.36 11.87 3.52 10.89Q2.56 9.77 2.12 8.73Q1.87 8.14 1.76 7.53Q1.68 7.08 1.68 6.61Q1.68 5.66 1.97 4.81Q2 4.73 2.03 4.65Q2.29 3.95 2.73 3.4Q2.87 3.21 3.03 3.04L3.03 3.04Q3.37 2.69 3.76 2.42Q4.12 2.18 4.53 2.01Q4.76 1.91 5 1.84Q5.64 1.65 6.34 1.65Q6.99 1.65 7.59 1.83Q8.28 2.04 8.89 2.5Q9.71 3.12 10.33 4.12Q10.4 4.23 10.49 4.32Q10.58 4.41 10.7 4.47Q10.79 4.52 10.9 4.56Q11.04 4.6 11.2 4.6Q11.35 4.6 11.49 4.56Q11.6 4.52 11.69 4.47Q11.81 4.41 11.9 4.32Q11.99 4.23 12.06 4.12Q12.68 3.12 13.5 2.5Q14.11 2.04 14.8 1.83Q15.4 1.65 16.05 1.65Q16.75 1.65 17.38 1.83Q17.63 1.91 17.86 2.01Q18.27 2.18 18.63 2.42Q19.02 2.69 19.36 3.04Q19.52 3.21 19.66 3.4Q20.1 3.95 20.36 4.65Q20.39 4.73 20.42 4.81Q20.71 5.66 20.71 6.61Q20.71 7.08 20.63 7.53Q20.52 8.14 20.27 8.73Q19.83 9.77 18.87 10.89Q18.03 11.87 16.58 13.16Q15.98 13.69 15.16 14.38Q14.66 14.8 13.59 15.68L13.59 15.68L13.59 15.68L13.59 15.69Q12.1 16.92 11.19 17.68Z" fill="#000000" fill-opacity="1.000000" fill-rule="evenodd"/>
</svg>
