<svg width="88.000000" height="88.000000" viewBox="0 0 88 88" fill="none" xmlns="http://www.w3.org/2000/svg" xmlns:xlink="http://www.w3.org/1999/xlink">
	<desc>
			Created with Pixso.
	</desc>
	<defs>
		<filter id="filter_0_930_dd" x="0.000000" y="0.000000" width="88.000000" height="88.000000" filterUnits="userSpaceOnUse" color-interpolation-filters="sRGB">
			<feFlood flood-opacity="0" result="BackgroundImageFix"/>
			<feColorMatrix in="SourceAlpha" type="matrix" values="0 0 0 0 0 0 0 0 0 0 0 0 0 0 0 0 0 0 127 0" result="hardAlpha"/>
			<feOffset dx="0" dy="2"/>
			<feGaussianBlur stdDeviation="4.66667"/>
			<feComposite in2="hardAlpha" operator="out" k2="-1" k3="1"/>
			<feColorMatrix type="matrix" values="0 0 0 0 0.18824 0 0 0 0 0.6549 0 0 0 0 0.8549 0 0 0 0.2 0"/>
			<feBlend mode="normal" in2="BackgroundImageFix" result="effect_dropShadow_1"/>
			<feBlend mode="normal" in="SourceGraphic" in2="effect_dropShadow_1" result="shape"/>
		</filter>
		<linearGradient x1="54.019997" y1="22.019995" x2="39.020004" y2="56.999992" id="paint_linear_0_930_0" gradientUnits="userSpaceOnUse">
			<stop stop-color="#34AEF4"/>
			<stop offset="1.000000" stop-color="#198CE0"/>
			<stop offset="1.000000" stop-color="#2297EC"/>
		</linearGradient>
		<linearGradient x1="45.781300" y1="41.594116" x2="52.012329" y2="51.581413" id="paint_linear_0_934_0" gradientUnits="userSpaceOnUse">
			<stop stop-color="#EFF7FC"/>
			<stop offset="1.000000" stop-color="#FFFFFF"/>
		</linearGradient>
	</defs>
	<g filter="url(#filter_0_930_dd)">
		<path id="Vector" d="M74 42C74 58.56 60.56 72 44 72C27.43 72 14 58.56 14 42C14 25.43 27.43 12 44 12C60.56 12 74 25.43 74 42Z" fill="url(#paint_linear_0_930_0)" fill-opacity="1.000000" fill-rule="evenodd"/>
	</g>
	<path id="Vector" d="M36.51 55.33C35.54 55.33 35.71 54.97 35.37 54.04L32.51 44.64L54.51 31.58L36.51 55.33Z" fill="#C8DAEA" fill-opacity="1.000000" fill-rule="nonzero"/>
	<path id="Vector" d="M36.51 55.34C37.26 55.34 37.6 55 38.01 54.59L42.01 50.7L37.03 47.69L36.51 55.34Z" fill="#A9C9DD" fill-opacity="1.000000" fill-rule="nonzero"/>
	<path id="Vector" d="M37.03 47.69L49.12 56.62C50.5 57.38 51.49 56.99 51.83 55.34L56.76 32.15C57.26 30.13 55.99 29.21 54.67 29.81L25.77 40.96C23.8 41.75 23.81 42.85 25.41 43.34L32.82 45.65L49.99 34.82C50.8 34.33 51.55 34.59 50.94 35.14L37.03 47.69Z" fill="url(#paint_linear_0_934_0)" fill-opacity="1.000000" fill-rule="nonzero"/>
</svg>
