<svg width="25.417969" height="14.902313" viewBox="0 0 25.418 14.9023" fill="none" xmlns="http://www.w3.org/2000/svg" xmlns:xlink="http://www.w3.org/1999/xlink">
	<desc>
			Created with Pixso.
	</desc>
	<defs/>
	<path id="Vector" d="M12.7 0C7.85 0 3.44 2.61 0.19 6.85C-0.07 7.2 -0.07 7.69 0.19 8.03C3.44 12.28 7.85 14.9 12.7 14.9C17.56 14.9 21.96 12.28 25.21 8.04C25.48 7.69 25.48 7.21 25.21 6.86C21.96 2.61 17.56 0 12.7 0ZM13.05 12.69C9.83 12.89 7.17 10.28 7.37 7.1C7.54 4.49 9.69 2.36 12.36 2.2C15.58 2 18.24 4.61 18.04 7.79C17.87 10.4 15.71 12.52 13.05 12.69ZM12.89 10.27C11.15 10.38 9.72 8.97 9.83 7.26C9.92 5.85 11.09 4.71 12.52 4.62C14.26 4.51 15.69 5.92 15.58 7.63C15.49 9.04 14.32 10.18 12.89 10.27Z" fill="#888888" fill-opacity="1.000000" fill-rule="nonzero"/>
</svg>
